<<<<<<< HEAD
=======
<<<<<<< HEAD
<<<<<<< HEAD
=======
>>>>>>> 2bcfd382 (fix Address)
>>>>>>> aurmich/dev
<svg xmlns="http://www.w3.org/2000/svg" fill="none" viewBox="0 0 24 24" stroke-width="1.5" stroke="currentColor">
  <title>Patient Icon</title>
  <path stroke-linecap="round" stroke-linejoin="round" d="M17.982 18.725A7.488 7.488 0 0 0 12 15.75a7.488 7.488 0 0 0-5.982 2.975m11.963 0a9 9 0 1 0-11.963 0m11.963 0A8.966 8.966 0 0 1 12 21a8.966 8.966 0 0 1-5.982-2.275M15 9.75a3 3 0 1 1-6 0 3 3 0 0 1 6 0Z" />
  <path stroke-linecap="round" stroke-linejoin="round" d="M9 12h.01M15 12h.01M10 15h4" />
  <path stroke-linecap="round" stroke-linejoin="round" d="M8.5 7.5h1.5m4 0h1.5" />
<<<<<<< HEAD
=======
<<<<<<< HEAD
=======
<?xml version="1.0" encoding="UTF-8"?>
<svg width="24px" height="24px" viewBox="0 0 24 24" version="1.1" xmlns="http://www.w3.org/2000/svg" xmlns:xlink="http://www.w3.org/1999/xlink">
    <title>Patient Icon</title>
    <g stroke="none" stroke-width="1" fill="none" fill-rule="evenodd">
        <path d="M12,12 C14.7614237,12 17,9.76142375 17,7 C17,4.23857625 14.7614237,2 12,2 C9.23857625,2 7,4.23857625 7,7 C7,9.76142375 9.23857625,12 12,12 Z" fill="currentColor"/>
        <path d="M12,14 C7.581722,14 4,15.790861 4,18 L4,20 L20,20 L20,18 C20,15.790861 16.418278,14 12,14 Z" fill="currentColor"/>
    </g>
>>>>>>> 9c8742f8 (feat(docs): add new documentation files for navigation translation rules, model states, and icon naming conventions to improve clarity and maintainability)
=======
>>>>>>> 2bcfd382 (fix Address)
>>>>>>> aurmich/dev
</svg>
